<?xml version="1.0" encoding="UTF-8" standalone="no"?>
<!DOCTYPE svg PUBLIC "-//W3C//DTD SVG 1.1//EN"
 "http://www.w3.org/Graphics/SVG/1.1/DTD/svg11.dtd">
<!-- Generated by graphviz version 14.1.5 (20260411.2331)
 -->
<!-- Title: dependency&#45;cruiser output Pages: 1 -->
<svg width="629pt" height="340pt"
 viewBox="0.00 0.00 629.00 340.00" xmlns="http://www.w3.org/2000/svg" xmlns:xlink="http://www.w3.org/1999/xlink">
<g id="graph0" class="graph" transform="scale(1 1) rotate(0) translate(4 336)">
<title>dependency&#45;cruiser output</title>
<polygon fill="white" stroke="none" points="-4,4 -4,-336 625.25,-336 625.25,4 -4,4"/>
<g id="clust1" class="cluster">
<title>cluster_src</title>
<path fill="#ffffff" stroke="black" stroke-width="2" d="M20,-8C20,-8 601.25,-8 601.25,-8 607.25,-8 613.25,-14 613.25,-20 613.25,-20 613.25,-312 613.25,-312 613.25,-318 607.25,-324 601.25,-324 601.25,-324 20,-324 20,-324 14,-324 8,-318 8,-312 8,-312 8,-20 8,-20 8,-14 14,-8 20,-8"/>
<text xml:space="preserve" text-anchor="middle" x="310.62" y="-311.45" font-family="Helvetica,sans-Serif" font-weight="bold" font-size="9.00">src</text>
</g>
<g id="clust2" class="cluster">
<title>cluster_src/app</title>
<path fill="#ffffff" stroke="black" stroke-width="2" d="M28,-16C28,-16 593.25,-16 593.25,-16 599.25,-16 605.25,-22 605.25,-28 605.25,-28 605.25,-286 605.25,-286 605.25,-292 599.25,-298 593.25,-298 593.25,-298 28,-298 28,-298 22,-298 16,-292 16,-286 16,-286 16,-28 16,-28 16,-22 22,-16 28,-16"/>
<text xml:space="preserve" text-anchor="middle" x="310.62" y="-285.45" font-family="Helvetica,sans-Serif" font-weight="bold" font-size="9.00">app</text>
</g>
<g id="clust3" class="cluster">
<title>cluster_src/app/core</title>
<path fill="#ffffff" stroke="black" stroke-width="2" d="M523.25,-134C523.25,-134 585.25,-134 585.25,-134 591.25,-134 597.25,-140 597.25,-146 597.25,-146 597.25,-208 597.25,-208 597.25,-214 591.25,-220 585.25,-220 585.25,-220 523.25,-220 523.25,-220 517.25,-220 511.25,-214 511.25,-208 511.25,-208 511.25,-146 511.25,-146 511.25,-140 517.25,-134 523.25,-134"/>
<text xml:space="preserve" text-anchor="middle" x="554.25" y="-207.45" font-family="Helvetica,sans-Serif" font-weight="bold" font-size="9.00">core</text>
</g>
<g id="clust4" class="cluster">
<title>cluster_src/app/core/config</title>
<path fill="#ffffff" stroke="black" stroke-width="2" d="M531.25,-142C531.25,-142 577.25,-142 577.25,-142 583.25,-142 589.25,-148 589.25,-154 589.25,-154 589.25,-182 589.25,-182 589.25,-188 583.25,-194 577.25,-194 577.25,-194 531.25,-194 531.25,-194 525.25,-194 519.25,-188 519.25,-182 519.25,-182 519.25,-154 519.25,-154 519.25,-148 525.25,-142 531.25,-142"/>
<text xml:space="preserve" text-anchor="middle" x="554.25" y="-181.45" font-family="Helvetica,sans-Serif" font-weight="bold" font-size="9.00">config</text>
</g>
<g id="clust5" class="cluster">
<title>cluster_src/app/modules</title>
<path fill="#ffffff" stroke="black" stroke-width="2" d="M112.5,-24C112.5,-24 491.25,-24 491.25,-24 497.25,-24 503.25,-30 503.25,-36 503.25,-36 503.25,-260 503.25,-260 503.25,-266 497.25,-272 491.25,-272 491.25,-272 112.5,-272 112.5,-272 106.5,-272 100.5,-266 100.5,-260 100.5,-260 100.5,-36 100.5,-36 100.5,-30 106.5,-24 112.5,-24"/>
<text xml:space="preserve" text-anchor="middle" x="301.88" y="-259.45" font-family="Helvetica,sans-Serif" font-weight="bold" font-size="9.00">modules</text>
</g>
<g id="clust6" class="cluster">
<title>cluster_src/app/modules/products</title>
<path fill="#ffffff" stroke="black" stroke-width="2" d="M120.5,-32C120.5,-32 337.25,-32 337.25,-32 343.25,-32 349.25,-38 349.25,-44 349.25,-44 349.25,-106 349.25,-106 349.25,-112 343.25,-118 337.25,-118 337.25,-118 120.5,-118 120.5,-118 114.5,-118 108.5,-112 108.5,-106 108.5,-106 108.5,-44 108.5,-44 108.5,-38 114.5,-32 120.5,-32"/>
<text xml:space="preserve" text-anchor="middle" x="228.88" y="-105.45" font-family="Helvetica,sans-Serif" font-weight="bold" font-size="9.00">products</text>
</g>
<g id="clust7" class="cluster">
<title>cluster_src/app/modules/products/product&#45;management</title>
<path fill="#ffffff" stroke="black" stroke-width="2" d="M224.5,-40C224.5,-40 329.25,-40 329.25,-40 335.25,-40 341.25,-46 341.25,-52 341.25,-52 341.25,-80 341.25,-80 341.25,-86 335.25,-92 329.25,-92 329.25,-92 224.5,-92 224.5,-92 218.5,-92 212.5,-86 212.5,-80 212.5,-80 212.5,-52 212.5,-52 212.5,-46 218.5,-40 224.5,-40"/>
<text xml:space="preserve" text-anchor="middle" x="276.88" y="-79.45" font-family="Helvetica,sans-Serif" font-weight="bold" font-size="9.00">product&#45;management</text>
</g>
<g id="clust8" class="cluster">
<title>cluster_src/app/modules/settings</title>
<path fill="#ffffff" stroke="black" stroke-width="2" d="M122.38,-126C122.38,-126 483.25,-126 483.25,-126 489.25,-126 495.25,-132 495.25,-138 495.25,-138 495.25,-234 495.25,-234 495.25,-240 489.25,-246 483.25,-246 483.25,-246 122.37,-246 122.37,-246 116.38,-246 110.38,-240 110.38,-234 110.38,-234 110.38,-138 110.38,-138 110.38,-132 116.38,-126 122.38,-126"/>
<text xml:space="preserve" text-anchor="middle" x="302.81" y="-233.45" font-family="Helvetica,sans-Serif" font-weight="bold" font-size="9.00">settings</text>
</g>
<g id="clust9" class="cluster">
<title>cluster_src/app/modules/settings/general&#45;settings</title>
<path fill="#ffffff" stroke="black" stroke-width="2" d="M235.38,-134C235.38,-134 475.25,-134 475.25,-134 481.25,-134 487.25,-140 487.25,-146 487.25,-146 487.25,-208 487.25,-208 487.25,-214 481.25,-220 475.25,-220 475.25,-220 235.38,-220 235.38,-220 229.38,-220 223.38,-214 223.38,-208 223.38,-208 223.38,-146 223.38,-146 223.38,-140 229.38,-134 235.38,-134"/>
<text xml:space="preserve" text-anchor="middle" x="355.31" y="-207.45" font-family="Helvetica,sans-Serif" font-weight="bold" font-size="9.00">general&#45;settings</text>
</g>
<g id="clust10" class="cluster">
<title>cluster_src/app/modules/settings/general&#45;settings/api</title>
<path fill="#ffffff" stroke="black" stroke-width="2" d="M369.25,-142C369.25,-142 467.25,-142 467.25,-142 473.25,-142 479.25,-148 479.25,-154 479.25,-154 479.25,-182 479.25,-182 479.25,-188 473.25,-194 467.25,-194 467.25,-194 369.25,-194 369.25,-194 363.25,-194 357.25,-188 357.25,-182 357.25,-182 357.25,-154 357.25,-154 357.25,-148 363.25,-142 369.25,-142"/>
<text xml:space="preserve" text-anchor="middle" x="418.25" y="-181.45" font-family="Helvetica,sans-Serif" font-weight="bold" font-size="9.00">api</text>
</g>
<!-- src/app/app.routes.ts -->
<g id="node1" class="node">
<title>src/app/app.routes.ts</title>
<g id="a_node1"><a xlink:href="../src/app/app.routes.ts" xlink:title="app.routes.ts">
<path fill="#ddfeff" stroke="black" d="M86.58,-123.88C86.58,-123.88 29.92,-123.88 29.92,-123.88 26.96,-123.88 24,-120.92 24,-117.96 24,-117.96 24,-112.04 24,-112.04 24,-109.08 26.96,-106.12 29.92,-106.12 29.92,-106.12 86.58,-106.12 86.58,-106.12 89.54,-106.12 92.5,-109.08 92.5,-112.04 92.5,-112.04 92.5,-117.96 92.5,-117.96 92.5,-120.92 89.54,-123.88 86.58,-123.88"/>
<text xml:space="preserve" text-anchor="start" x="32" y="-112.38" font-family="Helvetica,sans-Serif" font-size="9.00">app.routes.ts</text>
</a>
</g>
</g>
<!-- src/app/modules/products/products.routes.ts -->
<g id="node2" class="node">
<title>src/app/modules/products/products.routes.ts</title>
<g id="a_node2"><a xlink:href="../src/app/modules/products/products.routes.ts" xlink:title="products.routes.ts">
<path fill="#ddfeff" stroke="black" d="M198.58,-78.88C198.58,-78.88 122.42,-78.88 122.42,-78.88 119.46,-78.88 116.5,-75.92 116.5,-72.96 116.5,-72.96 116.5,-67.04 116.5,-67.04 116.5,-64.08 119.46,-61.12 122.42,-61.12 122.42,-61.12 198.58,-61.12 198.58,-61.12 201.54,-61.12 204.5,-64.08 204.5,-67.04 204.5,-67.04 204.5,-72.96 204.5,-72.96 204.5,-75.92 201.54,-78.88 198.58,-78.88"/>
<text xml:space="preserve" text-anchor="start" x="124.5" y="-67.38" font-family="Helvetica,sans-Serif" font-size="9.00">products.routes.ts</text>
</a>
</g>
</g>
<!-- src/app/app.routes.ts&#45;&gt;src/app/modules/products/products.routes.ts -->
<g id="edge1" class="edge">
<title>src/app/app.routes.ts&#45;&gt;src/app/modules/products/products.routes.ts</title>
<path fill="none" stroke="#000000" stroke-width="2" stroke-dasharray="5,2" stroke-opacity="0.200000" d="M80.02,-105.68C94.67,-99.1 114.49,-90.2 130.67,-82.94"/>
<polygon fill="#000000" fill-opacity="0.200000" stroke="#000000" stroke-width="2" stroke-opacity="0.200000" points="131.38,-84.92 135.99,-80.55 129.66,-81.09 131.38,-84.92"/>
</g>
<!-- src/app/modules/settings/settings.routes.ts -->
<g id="node3" class="node">
<title>src/app/modules/settings/settings.routes.ts</title>
<g id="a_node3"><a xlink:href="../src/app/modules/settings/settings.routes.ts" xlink:title="settings.routes.ts">
<path fill="#ddfeff" stroke="black" d="M196.71,-155.88C196.71,-155.88 124.29,-155.88 124.29,-155.88 121.33,-155.88 118.38,-152.92 118.38,-149.96 118.38,-149.96 118.38,-144.04 118.38,-144.04 118.38,-141.08 121.33,-138.12 124.29,-138.12 124.29,-138.12 196.71,-138.12 196.71,-138.12 199.67,-138.12 202.62,-141.08 202.62,-144.04 202.62,-144.04 202.62,-149.96 202.62,-149.96 202.62,-152.92 199.67,-155.88 196.71,-155.88"/>
<text xml:space="preserve" text-anchor="start" x="126.38" y="-144.38" font-family="Helvetica,sans-Serif" font-size="9.00">settings.routes.ts</text>
</a>
</g>
</g>
<!-- src/app/app.routes.ts&#45;&gt;src/app/modules/settings/settings.routes.ts -->
<g id="edge2" class="edge">
<title>src/app/app.routes.ts&#45;&gt;src/app/modules/settings/settings.routes.ts</title>
<path fill="none" stroke="#000000" stroke-width="2" stroke-dasharray="5,2" stroke-opacity="0.200000" d="M88.52,-124.34C98.91,-127.66 110.77,-131.44 121.77,-134.96"/>
<polygon fill="#000000" fill-opacity="0.200000" stroke="#000000" stroke-width="2" stroke-opacity="0.200000" points="121.13,-136.96 127.49,-136.78 122.41,-132.96 121.13,-136.96"/>
</g>
<!-- src/app/modules/products/product&#45;management/product&#45;management.ts -->
<g id="node5" class="node">
<title>src/app/modules/products/product&#45;management/product&#45;management.ts</title>
<g id="a_node5"><a xlink:href="../src/app/modules/products/product-management/product-management.ts" xlink:title="product&#45;management.ts">
<path fill="#ddfeff" stroke="black" d="M327.33,-65.88C327.33,-65.88 226.42,-65.88 226.42,-65.88 223.46,-65.88 220.5,-62.92 220.5,-59.96 220.5,-59.96 220.5,-54.04 220.5,-54.04 220.5,-51.08 223.46,-48.12 226.42,-48.12 226.42,-48.12 327.33,-48.12 327.33,-48.12 330.29,-48.12 333.25,-51.08 333.25,-54.04 333.25,-54.04 333.25,-59.96 333.25,-59.96 333.25,-62.92 330.29,-65.88 327.33,-65.88"/>
<text xml:space="preserve" text-anchor="start" x="228.5" y="-54.38" font-family="Helvetica,sans-Serif" font-size="9.00">product&#45;management.ts</text>
</a>
</g>
</g>
<!-- src/app/modules/products/products.routes.ts&#45;&gt;src/app/modules/products/product&#45;management/product&#45;management.ts -->
<g id="edge3" class="edge">
<title>src/app/modules/products/products.routes.ts&#45;&gt;src/app/modules/products/product&#45;management/product&#45;management.ts</title>
<path fill="none" stroke="#000000" stroke-width="2" stroke-dasharray="5,2" stroke-opacity="0.200000" d="M204.74,-65.09C206.95,-64.83 209.2,-64.58 211.46,-64.32"/>
<polygon fill="#000000" fill-opacity="0.200000" stroke="#000000" stroke-width="2" stroke-opacity="0.200000" points="211.48,-66.43 217.21,-63.67 211.01,-62.26 211.48,-66.43"/>
</g>
<!-- src/app/modules/settings/general&#45;settings/general&#45;settings.ts -->
<g id="node7" class="node">
<title>src/app/modules/settings/general&#45;settings/general&#45;settings.ts</title>
<g id="a_node7"><a xlink:href="../src/app/modules/settings/general-settings/general-settings.ts" xlink:title="general&#45;settings.ts">
<path fill="#ddfeff" stroke="black" d="M316.46,-163.88C316.46,-163.88 237.29,-163.88 237.29,-163.88 234.33,-163.88 231.38,-160.92 231.38,-157.96 231.38,-157.96 231.38,-152.04 231.38,-152.04 231.38,-149.08 234.33,-146.12 237.29,-146.12 237.29,-146.12 316.46,-146.12 316.46,-146.12 319.42,-146.12 322.38,-149.08 322.38,-152.04 322.38,-152.04 322.38,-157.96 322.38,-157.96 322.38,-160.92 319.42,-163.88 316.46,-163.88"/>
<text xml:space="preserve" text-anchor="start" x="239.38" y="-152.38" font-family="Helvetica,sans-Serif" font-size="9.00">general&#45;settings.ts</text>
</a>
</g>
</g>
<!-- src/app/modules/settings/settings.routes.ts&#45;&gt;src/app/modules/settings/general&#45;settings/general&#45;settings.ts -->
<g id="edge6" class="edge">
<title>src/app/modules/settings/settings.routes.ts&#45;&gt;src/app/modules/settings/general&#45;settings/general&#45;settings.ts</title>
<path fill="none" stroke="#000000" stroke-width="2" stroke-dasharray="5,2" stroke-opacity="0.200000" d="M203.12,-149.91C209.35,-150.35 215.85,-150.8 222.3,-151.25"/>
<polygon fill="#000000" fill-opacity="0.200000" stroke="#000000" stroke-width="2" stroke-opacity="0.200000" points="221.86,-153.33 227.99,-151.65 222.15,-149.14 221.86,-153.33"/>
</g>
<!-- src/app/core/config/config.ts -->
<g id="node4" class="node">
<title>src/app/core/config/config.ts</title>
<g id="a_node4"><a xlink:href="../src/app/core/config/config.ts" xlink:title="config.ts">
<path fill="#ddfeff" stroke="black" d="M575.33,-167.88C575.33,-167.88 533.17,-167.88 533.17,-167.88 530.21,-167.88 527.25,-164.92 527.25,-161.96 527.25,-161.96 527.25,-156.04 527.25,-156.04 527.25,-153.08 530.21,-150.12 533.17,-150.12 533.17,-150.12 575.33,-150.12 575.33,-150.12 578.29,-150.12 581.25,-153.08 581.25,-156.04 581.25,-156.04 581.25,-161.96 581.25,-161.96 581.25,-164.92 578.29,-167.88 575.33,-167.88"/>
<text xml:space="preserve" text-anchor="start" x="537.38" y="-156.38" font-family="Helvetica,sans-Serif" font-size="9.00">config.ts</text>
</a>
</g>
</g>
<!-- src/app/modules/settings/general&#45;settings/api/general&#45;settings.api.ts -->
<g id="node6" class="node">
<title>src/app/modules/settings/general&#45;settings/api/general&#45;settings.api.ts</title>
<g id="a_node6"><a xlink:href="../src/app/modules/settings/general-settings/api/general-settings.api.ts" xlink:title="general&#45;settings.api.ts">
<path fill="#ddfeff" stroke="black" d="M465.33,-167.88C465.33,-167.88 371.17,-167.88 371.17,-167.88 368.21,-167.88 365.25,-164.92 365.25,-161.96 365.25,-161.96 365.25,-156.04 365.25,-156.04 365.25,-153.08 368.21,-150.12 371.17,-150.12 371.17,-150.12 465.33,-150.12 465.33,-150.12 468.29,-150.12 471.25,-153.08 471.25,-156.04 471.25,-156.04 471.25,-161.96 471.25,-161.96 471.25,-164.92 468.29,-167.88 465.33,-167.88"/>
<text xml:space="preserve" text-anchor="start" x="373.25" y="-156.38" font-family="Helvetica,sans-Serif" font-size="9.00">general&#45;settings.api.ts</text>
</a>
</g>
</g>
<!-- src/app/modules/settings/general&#45;settings/api/general&#45;settings.api.ts&#45;&gt;src/app/core/config/config.ts -->
<g id="edge4" class="edge">
<title>src/app/modules/settings/general&#45;settings/api/general&#45;settings.api.ts&#45;&gt;src/app/core/config/config.ts</title>
<path fill="none" stroke="#000000" stroke-width="2" stroke-opacity="0.200000" d="M471.44,-159C486.99,-159 503.67,-159 517.88,-159"/>
<polygon fill="#000000" fill-opacity="0.200000" stroke="#000000" stroke-width="2" stroke-opacity="0.200000" points="517.8,-161.1 523.8,-159 517.8,-156.9 517.8,-161.1"/>
</g>
<!-- src/app/modules/settings/general&#45;settings/general&#45;settings.ts&#45;&gt;src/app/modules/settings/general&#45;settings/api/general&#45;settings.api.ts -->
<g id="edge5" class="edge">
<title>src/app/modules/settings/general&#45;settings/general&#45;settings.ts&#45;&gt;src/app/modules/settings/general&#45;settings/api/general&#45;settings.api.ts</title>
<path fill="none" stroke="#000000" stroke-width="2" stroke-opacity="0.200000" d="M322.74,-156.29C333.42,-156.59 344.98,-156.93 356.25,-157.25"/>
<polygon fill="#000000" fill-opacity="0.200000" stroke="#000000" stroke-width="2" stroke-opacity="0.200000" points="356.1,-159.35 362.16,-157.42 356.22,-155.15 356.1,-159.35"/>
</g>
</g>
</svg>
